<svg viewBox="0 0 885 441" fill="none" xmlns="http://www.w3.org/2000/svg">
<path class="logo" d="M336.5 74C337.052 74 337.5 74.4477 337.5 75V218.5C337.5 219.052 337.052 219.5 336.5 219.5H278C277.448 219.5 277 219.052 277 218.5V75C277 74.4477 277.448 74 278 74H336.5ZM649.5 0C649.904 0 650.269 0.243588 650.424 0.617188C650.579 0.990859 650.493 1.42103 650.207 1.70703L595.707 56.207C595.52 56.3946 595.265 56.5 595 56.5H471.5V160.5C471.5 160.765 471.395 161.02 471.207 161.207L413.207 219.207C412.921 219.493 412.491 219.579 412.117 219.424C411.744 219.269 411.5 218.904 411.5 218.5V56.5H354.5C353.948 56.5 353.5 56.0523 353.5 55.5V1C353.5 0.447715 353.948 0 354.5 0H649.5ZM147.5 111C158.029 111 166.868 118.232 169.322 128H255.5C256.052 128 256.5 128.448 256.5 129V139.5C256.5 140.052 256.052 140.5 255.5 140.5H168.888C165.944 149.499 157.482 156 147.5 156C135.074 156 125 145.926 125 133.5C125 121.074 135.074 111 147.5 111ZM574.5 115.5L594 135H616V135.025C617.68 131.465 621.302 129 625.5 129C631.299 129 636 133.701 636 139.5C636 145.299 631.299 150 625.5 150C620.744 150 616.729 146.837 615.438 142.5H590.5L572.5 124.5H511V115.5H574.5ZM147 123C140.925 123 136 127.925 136 134C136 140.075 140.925 145 147 145C153.075 145 158 140.075 158 134C158 127.925 153.075 123 147 123ZM699.5 74C711.926 74 722 84.0736 722 96.5C722 108.926 711.926 119 699.5 119C689.135 119 680.408 111.991 677.798 102.454C677.704 102.483 677.604 102.5 677.5 102.5H511.5C510.948 102.5 510.5 102.052 510.5 101.5V91.5C510.5 90.9477 510.948 90.5 511.5 90.5H677.5C677.604 90.5 677.704 90.5156 677.798 90.5449C680.409 81.0086 689.135 74 699.5 74ZM699 85C692.925 85 688 89.9249 688 96C688 102.075 692.925 107 699 107C705.075 107 710 102.075 710 96C710 89.9249 705.075 85 699 85ZM119.5 37C129.848 37 138.564 43.9867 141.189 53.5H214.5C214.765 53.5 215.019 53.6054 215.207 53.793L250.914 89.5H255.5C256.052 89.5 256.5 89.9477 256.5 90.5V101C256.5 101.552 256.052 102 255.5 102H195.5C195.235 102 194.981 101.895 194.793 101.707L175.293 82.207C175.007 81.921 174.921 81.4909 175.076 81.1172C175.231 80.7436 175.596 80.5 176 80.5H189.5C189.765 80.5 190.019 80.6054 190.207 80.793L198.914 89.5H231.586L208.586 66.5H140.888C137.944 75.4988 129.482 82 119.5 82C107.074 82 97 71.9264 97 59.5C97 47.0736 107.074 37 119.5 37ZM119 48C112.925 48 108 52.9249 108 59C108 65.0751 112.925 70 119 70C125.075 70 130 65.0751 130 59C130 52.9249 125.075 48 119 48ZM336.5 0C337.052 0 337.5 0.447715 337.5 1V55.5C337.5 56.0523 337.052 56.5 336.5 56.5H278C277.448 56.5 277 56.0523 277 55.5V1C277 0.447715 277.448 0 278 0H336.5Z" fill="#1E1E1E"/>
<path class="logo" d="M87.1145 352V274.816H55.4345V257.28H140.747V274.816H109.003V352H87.1145ZM211.002 352L202.553 326.784H164.537L156.089 352H134.777L167.865 257.28H199.418L232.506 352H211.002ZM170.105 310.08H196.986L183.546 269.952L170.105 310.08ZM236.755 365.312C240.467 360.533 243.091 355.691 244.627 350.784C246.206 345.835 246.995 339.883 246.995 332.928V257.28H268.691V332.864C268.563 340.928 267.113 348.245 264.339 354.816C261.566 361.387 256.937 367.957 250.451 374.528L236.755 365.312ZM291.018 352V257.28H312.906V352H291.018ZM394.625 352L366.721 312.96H357.121V352H335.233V257.28H357.121V294.144H366.721L392.449 257.28H415.553L383.617 303.104L418.497 352H394.625ZM428.949 352V257.28H450.837V352H428.949ZM498.828 353.216C488.63 353.216 479.158 351.829 470.412 349.056V331.648C474.508 333.056 479.18 334.165 484.428 334.976C489.676 335.744 494.518 336.128 498.956 336.128C505.398 336.128 510.028 335.211 512.844 333.376C515.66 331.499 517.068 328.747 517.068 325.12C517.068 323.115 516.641 321.451 515.788 320.128C514.934 318.805 513.484 317.675 511.436 316.736C509.43 315.755 506.593 314.837 502.924 313.984L495.5 312.384C486.07 310.336 479.158 307.093 474.764 302.656C470.369 298.176 468.172 292.267 468.172 284.928C468.172 275.669 471.67 268.544 478.668 263.552C485.665 258.56 496.012 256.064 509.708 256.064C514.188 256.064 518.476 256.32 522.572 256.832C526.668 257.344 530.38 258.048 533.708 258.944V276.352C530.508 275.371 526.838 274.603 522.7 274.048C518.604 273.451 514.529 273.152 510.476 273.152C503.052 273.152 497.74 274.091 494.54 275.968C491.34 277.845 489.74 280.533 489.74 284.032C489.74 285.952 490.102 287.552 490.828 288.832C491.596 290.069 492.854 291.157 494.604 292.096C496.396 292.992 498.892 293.824 502.092 294.592L509.58 296.192C519.777 298.411 527.158 301.76 531.724 306.24C536.332 310.72 538.636 316.608 538.636 323.904C538.636 329.963 537.036 335.189 533.836 339.584C530.678 343.979 526.113 347.349 520.14 349.696C514.166 352.043 507.062 353.216 498.828 353.216ZM574.869 352V274.816H543.189V257.28H628.501V274.816H596.757V352H574.869ZM698.756 352L690.308 326.784H652.292L643.844 352H622.532L655.62 257.28H687.172L720.26 352H698.756ZM657.86 310.08H684.74L671.3 269.952L657.86 310.08ZM800.863 257.28H821.471V352H799.455L755.167 288.256V352H734.559V257.28H756.575L800.863 321.024V257.28Z" fill="#1E1E1E"/>
<path class="logo" d="M394.28 418.296V427H361.128V421.304L375.432 404.76C377.523 402.307 378.995 400.259 379.848 398.616C380.702 396.973 381.128 395.395 381.128 393.88C381.128 391.683 380.414 390.083 378.984 389.08C377.576 388.077 375.262 387.576 372.04 387.576C370.056 387.576 368.051 387.757 366.024 388.12C363.998 388.483 362.174 388.963 360.552 389.56V380.888C362.088 380.355 364.019 379.917 366.344 379.576C368.67 379.213 370.867 379.032 372.936 379.032C379.358 379.032 384.115 380.152 387.208 382.392C390.323 384.611 391.88 388.056 391.88 392.728C391.88 395.267 391.326 397.731 390.216 400.12C389.128 402.488 387.262 405.155 384.616 408.12L375.624 418.296H394.28ZM420.386 427.608C414.221 427.608 409.421 425.603 405.986 421.592C402.573 417.56 400.866 411.469 400.866 403.32C400.866 395.149 402.562 389.059 405.954 385.048C409.368 381.037 414.178 379.032 420.386 379.032C426.573 379.032 431.373 381.037 434.786 385.048C438.221 389.059 439.938 395.149 439.938 403.32C439.938 408.803 439.149 413.347 437.57 416.952C435.992 420.557 433.741 423.235 430.818 424.984C427.917 426.733 424.44 427.608 420.386 427.608ZM420.418 418.776C422.317 418.776 423.917 418.296 425.218 417.336C426.52 416.376 427.512 414.765 428.194 412.504C428.898 410.221 429.25 407.171 429.25 403.352C429.25 399.512 428.898 396.451 428.194 394.168C427.512 391.885 426.52 390.264 425.218 389.304C423.917 388.344 422.317 387.864 420.418 387.864C418.498 387.864 416.888 388.344 415.586 389.304C414.306 390.264 413.314 391.885 412.61 394.168C411.906 396.429 411.554 399.469 411.554 403.288C411.554 407.149 411.896 410.221 412.578 412.504C413.261 414.765 414.253 416.376 415.554 417.336C416.856 418.296 418.477 418.776 420.418 418.776ZM479.808 418.296V427H446.656V421.304L460.96 404.76C463.051 402.307 464.523 400.259 465.376 398.616C466.229 396.973 466.656 395.395 466.656 393.88C466.656 391.683 465.941 390.083 464.512 389.08C463.104 388.077 460.789 387.576 457.568 387.576C455.584 387.576 453.579 387.757 451.552 388.12C449.525 388.483 447.701 388.963 446.08 389.56V380.888C447.616 380.355 449.547 379.917 451.872 379.576C454.197 379.213 456.395 379.032 458.464 379.032C464.885 379.032 469.643 380.152 472.736 382.392C475.851 384.611 477.408 388.056 477.408 392.728C477.408 395.267 476.853 397.731 475.744 400.12C474.656 402.488 472.789 405.155 470.144 408.12L461.152 418.296H479.808ZM507.674 398.488C510.874 398.488 513.669 399.011 516.058 400.056C518.447 401.08 520.303 402.669 521.626 404.824C522.97 406.957 523.642 409.635 523.642 412.856C523.642 415.864 522.949 418.477 521.562 420.696C520.175 422.915 518.17 424.621 515.546 425.816C512.943 427.011 509.85 427.608 506.266 427.608C502.277 427.608 498.821 426.797 495.898 425.176C492.975 423.555 490.703 421.059 489.082 417.688C487.482 414.317 486.682 410.083 486.682 404.984C486.682 396.451 488.709 389.997 492.762 385.624C496.837 381.229 502.767 379.032 510.554 379.032C512.645 379.032 514.543 379.149 516.25 379.384C517.978 379.619 519.589 380.024 521.082 380.6V388.696C519.631 388.163 518.053 387.757 516.346 387.48C514.639 387.203 512.933 387.064 511.226 387.064C506.639 387.064 503.194 388.237 500.89 390.584C498.586 392.909 497.37 396.419 497.242 401.112C498.607 400.28 500.207 399.64 502.042 399.192C503.898 398.723 505.775 398.488 507.674 398.488ZM506.298 420.024C508.602 420.024 510.426 419.448 511.77 418.296C513.114 417.123 513.786 415.395 513.786 413.112C513.786 410.744 513.061 408.984 511.61 407.832C510.181 406.659 508.154 406.072 505.53 406.072C504.079 406.072 502.639 406.264 501.21 406.648C499.781 407.011 498.469 407.565 497.274 408.312C497.466 412.579 498.319 415.597 499.834 417.368C501.37 419.139 503.525 420.024 506.298 420.024Z" fill="#1E1E1E"/>
</svg>
