<svg viewBox="0 0 374 220" fill="none" xmlns="http://www.w3.org/2000/svg">
<path d="M59.5 74C60.0523 74 60.5 74.4477 60.5 75V218.5C60.5 219.052 60.0523 219.5 59.5 219.5H1C0.447715 219.5 0 219.052 0 218.5V75C0 74.4477 0.447715 74 1 74H59.5ZM372.5 0C372.904 0 373.269 0.243588 373.424 0.617188C373.579 0.990859 373.493 1.42103 373.207 1.70703L318.707 56.207C318.52 56.3946 318.265 56.5 318 56.5H194.5V160.5C194.5 160.765 194.395 161.02 194.207 161.207L136.207 219.207C135.921 219.493 135.491 219.579 135.117 219.424C134.744 219.269 134.5 218.904 134.5 218.5V56.5H77.5C76.9477 56.5 76.5 56.0523 76.5 55.5V1C76.5 0.447715 76.9477 0 77.5 0H372.5ZM59.5 0C60.0523 0 60.5 0.447715 60.5 1V55.5C60.5 56.0523 60.0523 56.5 59.5 56.5H1C0.447715 56.5 0 56.0523 0 55.5V1C0 0.447715 0.447715 0 1 0H59.5Z"/>
</svg>
